<?xml version="1.0" encoding="UTF-8"?>
<svg id="a" data-name="Layer 1" xmlns="http://www.w3.org/2000/svg" viewBox="0 0 1920 1080">
  <path d="M469.39,293.98l2.24,4.02,3.13,4.32v2.83l3.13,2.09,1.34,3.43.89,1.79.45,2.53,2.24,3.13,1.79,3.28,1.34,1.04,1.79,2.98,2.83,8.2.75,1.94,2.53,4.02.45,3.43,2.24,1.79.6,5.07.89,2.38,2.98,1.64,1.34,4.02,1.19-.15.6,2.68,2.83,2.38.89,5.22,1.94,1.94v1.49l2.53,3.58.6,2.38,1.94,3.58,1.79,1.04,2.09,3.43,1.04,3.28-3.43,3.43-3.58,1.19-2.09-1.04h-4.32l-1.04-.89-3.73.6-3.73,1.49-2.24-2.83-3.13,2.09-3.28-.3-3.43,1.04-2.53-2.53-3.88.3-2.53-2.38,3.28-6.71,2.09-.45,3.43-3.13.45-2.53-2.24-3.13v-3.28l-1.64-2.68-3.28-2.24-.89-2.38-3.58-1.49-3.13-3.28-3.43.45-5.37-1.94-2.98,2.83-3.88-2.24-3.13,1.34-2.68.3-2.68.6-1.94-1.04h-2.98l-4.77,3.43-1.04,2.24-.45.75-2.38,4.92-.75,2.53-.89.45-2.98,6.26-1.19,3.13,6.11,3.58,1.19-.15,2.98.75,2.53,2.09-2.98,3.88-2.38.15-4.47.15-2.38-.45-3.58-.45-1.49,2.38-3.13-1.79-3.73.45-4.32-.75-2.53,1.94-1.64-4.62,1.94-2.53,1.49-1.94,1.64-2.98,1.79-4.02,2.38-1.94-.3-3.43,2.83-1.04.45-3.13,2.09-4.02,1.04-1.64,1.79-3.13.6-2.38.45-2.09,1.49-3.13,1.34-1.79.75-2.68,1.79-3.43.45-3.43,3.43-2.38.3-3.73,1.79-.6,1.04-4.32v-3.58l1.34-.75,1.49-4.47,2.98-3.13.6-1.49.3-2.53,1.64-3.88,1.79-2.09,2.98-5.81,1.94-1.49-.15-4.32.75-3.43,2.53-2.83,4.17-1.34,2.98,1.04,4.77.75.75,4.32ZM454.94,348.38l2.53,1.19h4.47l3.88.89,2.09-4.77-1.19-1.19.3-4.02-1.19-3.88.6-2.68-1.49-2.09-.3-3.73-.89-1.64-.45-4.17.75-3.73-.89-2.98-4.17-1.79-2.09,4.32.45,2.68-1.04,2.24-2.68,2.09-.89,3.73.15,4.17-1.34,2.38-2.53,6.11h-3.43l-3.43,5.81,2.98,1.34,6.71.45,3.13-.75Z" fill="#231f20"/>
  <path d="M638.26,295.18l-3.88-.15-3.73,2.38-1.04,1.04-1.94,4.02-.15,1.49,2.09,4.02-1.94,3.43,1.94,1.64-2.09,4.32,2.09,2.68-.45,4.17-1.19,3.73v1.64l1.19,7.3-.89,3.73,1.04,2.09-1.64,4.17.75,1.34.45,3.28v3.73l-.45,4.02.15,4.77-.15.89-1.34,7.45.45,1.79-.75,3.58.3,2.98.45,2.09.15,3.88-.15,3.88-3.88,2.24-2.83-.6-2.24-.15-3.28-.75-4.17-1.49-1.94-5.81-.6-2.83-1.49-1.19-1.19-4.02-1.34-3.13-2.53-1.19-4.17-3.13-1.79-2.98-2.24-2.98-.89.6-2.24-2.09-4.92-5.07.6-3.73-1.64-2.53-1.34-1.04-1.94-3.28-.6-1.34-2.98-3.28-1.04-2.38-1.64-4.62-1.34-.75-1.49-1.79-.75-4.92-2.24-2.68-3.58-1.79-1.04-3.73-3.13-2.98-1.19,1.04-.15,4.62-.3.89-.6,2.53,1.64,3.88-2.09,4.32.6,2.98-.15.89,1.34,4.47.3,2.38v6.56l-1.34,1.34-.15,3.43v2.24l1.34,2.68.45,4.02-1.34,2.83.45,2.83-.15,4.32-.15,2.38,2.53,3.28,2.83,3.28,2.53.6,1.64,6.86-3.13,1.19-3.43.75-2.68.6-4.92-1.64-1.49,1.94-2.53.45-4.02-.45-2.38-.3-3.28-1.04-4.47.75-2.24-.75-2.53-2.53v-2.24l2.68-2.24,4.02-1.04,3.43-2.38,2.98-3.73.6-3.88-.6-1.04.3-4.62-1.04-2.98-.89-5.51.3-2.98.15-4.32,1.19-3.43-.3-1.34.15-6.71.6-3.88-1.34-2.38-.15-1.34,1.49-4.77-.75-6.26-.45-1.19.75-2.98-.45-4.77-1.64-3.73-.15-1.34-.3-4.92-3.13-3.13-2.09-.89-3.73-.75-2.09-5.22-.6-2.98,4.02-2.24,2.98,1.49,2.98.15,3.28-2.83,3.88,1.94,2.98-1.49,2.24,2.38h2.98l5.07,2.38,4.17,5.66,2.53,2.24,2.24,1.04.45,2.83,4.02,2.53,1.79,3.73,1.64,1.49,2.83,1.94,1.64,2.68.3,2.83,1.94,2.53,2.09,2.53,4.77,3.88,1.34,2.09,1.94,1.34,1.79,2.98,4.02,4.92.15,4.17,3.28,1.04.75,4.32.6,1.64,3.28,3.43.75,3.13,2.38.15,3.58,3.58-.75-1.49,2.09-4.62-.6-2.38.6-3.13-.45-4.32-1.19-.6-.15-3.73,1.04-3.43.3-4.62-.6-5.51-.6-2.38-.3-3.58,1.04-.75-.45-4.92-.3-4.47v-4.77l.45-4.32-2.24-5.51-5.51-1.19-3.88-.3-2.83-2.38,4.62-5.37,1.19,2.24,4.62-1.79,3.43-.15,2.24.3,3.73-.3,2.68.15,1.94,1.19,3.58-1.04,4.17,1.04,2.38-.3,2.53,1.34-.75,5.96Z" fill="#231f20"/>
  <path d="M703.39,293.98l2.24,4.02,3.13,4.32v2.83l3.13,2.09,1.34,3.43.89,1.79.45,2.53,2.24,3.13,1.79,3.28,1.34,1.04,1.79,2.98,2.83,8.2.75,1.94,2.53,4.02.45,3.43,2.24,1.79.6,5.07.89,2.38,2.98,1.64,1.34,4.02,1.19-.15.6,2.68,2.83,2.38.89,5.22,1.94,1.94v1.49l2.53,3.58.6,2.38,1.94,3.58,1.79,1.04,2.09,3.43,1.04,3.28-3.43,3.43-3.58,1.19-2.09-1.04h-4.32l-1.04-.89-3.73.6-3.73,1.49-2.24-2.83-3.13,2.09-3.28-.3-3.43,1.04-2.53-2.53-3.88.3-2.53-2.38,3.28-6.71,2.09-.45,3.43-3.13.45-2.53-2.24-3.13v-3.28l-1.64-2.68-3.28-2.24-.89-2.38-3.58-1.49-3.13-3.28-3.43.45-5.37-1.94-2.98,2.83-3.88-2.24-3.13,1.34-2.68.3-2.68.6-1.94-1.04h-2.98l-4.77,3.43-1.04,2.24-.45.75-2.38,4.92-.75,2.53-.89.45-2.98,6.26-1.19,3.13,6.11,3.58,1.19-.15,2.98.75,2.53,2.09-2.98,3.88-2.38.15-4.47.15-2.38-.45-3.58-.45-1.49,2.38-3.13-1.79-3.73.45-4.32-.75-2.53,1.94-1.64-4.62,1.94-2.53,1.49-1.94,1.64-2.98,1.79-4.02,2.38-1.94-.3-3.43,2.83-1.04.45-3.13,2.09-4.02,1.04-1.64,1.79-3.13.6-2.38.45-2.09,1.49-3.13,1.34-1.79.75-2.68,1.79-3.43.45-3.43,3.43-2.38.3-3.73,1.79-.6,1.04-4.32v-3.58l1.34-.75,1.49-4.47,2.98-3.13.6-1.49.3-2.53,1.64-3.88,1.79-2.09,2.98-5.81,1.94-1.49-.15-4.32.75-3.43,2.53-2.83,4.17-1.34,2.98,1.04,4.77.75.75,4.32ZM688.93,348.38l2.53,1.19h4.47l3.88.89,2.09-4.77-1.19-1.19.3-4.02-1.19-3.88.6-2.68-1.49-2.09-.3-3.73-.89-1.64-.45-4.17.75-3.73-.89-2.98-4.17-1.79-2.09,4.32.45,2.68-1.04,2.24-2.68,2.09-.89,3.73.15,4.17-1.34,2.38-2.53,6.11h-3.43l-3.43,5.81,2.98,1.34,6.71.45,3.13-.75Z" fill="#231f20"/>
  <path d="M854.52,294.13l1.49,3.58-1.49,1.49,1.49,2.53-.75,2.83-.6,2.24.89,4.02-1.49,1.79-2.09,1.79-4.17-1.19.89-2.38-2.53-6.56-1.79-3.43-6.11-2.09-2.98-.75-3.43.45-1.79,1.64-4.17-2.68-2.83.89-4.17,4.02v7.75l.89,1.79v1.79l-.15,3.28-1.19,3.58,1.04,4.02-.6,2.53-1.49,2.98,1.04,2.38.45,1.34-1.79,3.58,1.79,2.98-.75,2.24-.45,2.68-1.04,2.68,2.09,5.81-.3,3.88-1.19,1.64.6,4.32.45,2.98.3,6.56-.75.75,1.64,4.32-.75,3.28,1.79,1.34,4.77,2.09h1.19l3.73.6,2.83,2.53-3.13,5.51-2.98-.75-2.53-.75-2.38-.45-4.02.75-1.79.6-2.38-1.04-4.62-1.04-1.64,1.79-3.58-1.49-2.98,1.79-2.53-1.04-2.53,1.34-4.17-1.19-1.79.6-3.28-4.62,3.58-5.07,2.53-.15,3.58-.89,4.62-2.68-.75-3.28.75-3.58-.3-1.34-.3-5.81,1.49-2.53-.3-2.53-.15-3.28.3-4.02-1.04-3.58,1.49-2.53-1.94-3.73.15-3.13-.3-2.53.75-2.38-.45-2.98-.6-4.62-.15-2.53.75-4.32-.3-4.77v-2.24l.89-3.58-1.19-3.13,1.79-2.24-.6-2.53-2.09-4.02-2.98-.15-4.77,1.49-1.49,1.19-3.43-1.34-2.83-.6-3.73.3-2.09,1.94-3.58,2.24.45,4.02-.6,2.83-1.79,2.09-1.04,1.64-5.37,4.17-2.98-3.43-.75-3.43.75-3.88,1.49-2.53-.75-2.83.75-1.49-1.04-3.58,1.04-1.94,1.19-3.13,1.64-4.62,2.98,1.64,2.98-1.34,4.32.15,2.53-.3,3.58.15,3.28-.6,2.09.6h2.24l2.83,1.34,4.77.45,3.28-1.79h1.79l2.24-1.04,5.07,1.34,1.79-1.19,2.38,1.34,4.32-.75,2.98.45,1.94,1.34,3.73-1.64h3.88l2.53-.3,2.98-.3,2.83-.15,2.68,1.64,2.83.75,4.17-2.09,1.79,2.53,4.02,1.79-1.34,3.13Z" fill="#231f20"/>
  <path d="M957.5,328.26l-.3,4.17v.45l.3,3.13,1.04,2.98-.3,5.22-.75,1.34-1.04,4.47-.89,1.64.15,2.38.45,2.38-1.79,4.77-1.64,3.43-.45.3-.6,3.88-1.19,2.24-2.68,4.02-1.49,2.24-2.98.75-1.49,1.19-1.64,2.53-5.51,4.77-1.64-.6-3.13,2.83-2.53.89-3.88-1.19-1.94.75-2.38.89-5.22,2.83-4.32-2.09-2.53,2.09-3.13-1.04-2.24-1.34-2.98-.45-5.22-2.24-1.94,1.64-3.58-1.94-1.49-.6-3.73-2.38-2.98,1.04-.89-2.53-2.53-1.94-2.83-1.34-1.64-4.17-2.83-.15-.6-2.38-1.04-3.73-.6-2.09-1.79-5.07-1.34-3.28-.45-2.98-.75-6.11-1.04-1.34.75-2.83-1.19-2.83v-3.88l-.75-3.88.45-2.24.3-3.73,1.04-1.94.3-2.98,1.04-2.53.3-3.13,1.94-2.24,1.94-2.83,1.19-3.58,1.49-.89.15-1.94,2.53-3.28,2.98-1.64,3.43-4.77,2.98-3.13,1.49.75,2.98-1.04,3.73-1.94,2.53-1.79,2.38.3,2.83-.3,3.58.15,3.13-.45,4.47-2.09,7.15,1.94,2.24-.15,3.73.75,1.64-.75,3.43,2.53h2.98l3.88,3.28,3.13-.75,2.38,3.13,1.19,1.19,3.43.75,2.83,6.56.75.6,2.53,2.68,1.64,3.88.45,2.09.89,3.88,2.98,5.37.75,3.43ZM938.72,349.73l-.3-3.58-1.64-4.77.45-1.64v-2.68l1.19-4.47-.89-.6v-4.62l-1.34-1.34.15-4.17-.15-5.51-2.09-5.96-5.66-3.43-2.24-.45-3.73-.45-5.51-3.58-2.24-1.04-2.98-.75-2.83.6-3.13-.45-2.38-.45-5.96,2.09-2.68,2.09-1.79,2.68-2.38,2.83-4.47,3.13-1.49,3.88-2.68,1.34.6,1.49-1.34,2.68-1.04,3.28-.89,5.07-1.49,2.83.15,1.04,1.79,4.02,1.64,4.62,1.79,3.73-1.19,3.13,1.94,3.28-2.09,2.68,1.79,3.58-1.04,2.24,1.49,1.49,1.04,4.02,1.04,1.19-.3,4.47,2.68.45,6.56,3.43,1.04.75,4.02-.3,3.58-.45,2.24,1.19,3.13,1.64,2.09-2.24,2.38-.15,3.73,1.79,5.66-3.88,5.51-.15,5.07-2.98.75-3.88.3-5.22,2.38-3.28-.3-2.09,1.64-4.77.45-3.43Z" fill="#231f20"/>
  <path d="M1090.75,295.03l-6.56,1.79-2.68,5.07.75,5.22-1.64,3.58,1.34,5.22-.89,3.13.89,1.79-.6,7.15-.15,2.24,1.79,1.79-1.34,4.32v3.73l.15,1.79-1.49,3.28,1.04,2.53-.75,4.02.75,2.38.15,4.92.3,3.43-.6,2.38-.3,5.22-.15,1.49,1.79,4.47-.45,3.28,2.53,1.79,1.94,2.83,4.32.89,2.98,3.13-4.77,3.13-3.28.45-1.19,2.09-3.58-.3-6.56.3-3.13-1.64-2.98.3-1.79.6-4.32.6-1.79-1.64-2.83,1.19-3.28-2.24-4.92-2.38.45-2.53,2.83-2.38,2.68-1.19,2.83-2.24,3.58-.45.89-4.47,2.09-2.98-1.94-1.34v-4.62l1.64-1.04-1.04-3.28,1.19-4.32.6-.75-1.19-4.92.3-1.34,1.04-4.02-.89-2.38,1.19-4.32-.3-1.49.45-4.77-1.94-.3,1.19-4.47-.89-3.28,1.19-3.13-.75-3.58,1.34-.75-1.19-3.43.75-2.83-1.19-2.24-1.64,4.47v1.19l-1.49,3.58-.3,2.83-2.83,3.28-.89,3.13-.89,3.43.3,1.64-1.94,2.24-1.19,2.98-.3,2.53-1.19,4.92-1.19,1.19-1.04,2.53-1.79,2.83-2.24,2.09-.3,3.73-1.04,2.09-.75,2.38-2.38,5.51-1.19,1.64-1.49,6.56-1.79,1.64-1.34,1.19.3,2.98-3.43,3.58-1.34,2.09-.15,1.34-4.77,4.47-2.24-1.34-4.92-1.34-2.09-4.47-1.19-2.09-4.02-4.02.6-2.83-1.79-3.28-2.38-.89-.6-4.02-1.34-2.09-1.04-4.62v-1.34l-1.64-3.43-1.49-3.43-1.64-2.53-.3-3.28-2.53-3.88-.75-3.73-.3-3.28-1.94-2.98-.6-1.64-2.98-3.43-.89-3.43-1.34-1.79.3-3.88-1.19,1.04-.89,2.83.89,4.47-1.04,2.98,1.19.3-1.04,4.02.6,1.64,1.19,7.15-.3,3.43-1.04,3.28v1.94l.45,2.24-1.04,7.75,1.64,1.34-.45,4.32,1.34,1.64.45,4.47-.15,3.73,2.83,1.79,2.98,3.28,2.38,2.09,3.28,3.43-4.62,1.94-2.83-.75-1.94,1.79-3.88-1.19-1.94,1.34-3.13.15-3.28.6-2.24-2.09-3.28.3-3.13,1.04-2.24-.15-2.83-1.19-2.09-3.28,3.13-2.38,3.28-.89,3.13-2.53.6-2.68-.75-.89,1.49-7.45.75-1.04,1.64-7.01-1.79-1.64v-2.09l.15-4.62,1.34-1.64.15-5.66-1.19-.89-.3-4.92.3-3.58.6-5.66-2.09-1.79,1.04-1.79-1.49-3.28.15-7.6.45-1.94-1.04-2.68,1.19-3.58-2.09-3.58,1.94-1.79-1.04-4.17-2.38-5.22-4.47.89-.75-1.19-2.68-4.32,2.53-2.98,3.43-.45,1.79.3,4.17.3,2.83-1.19,3.58,1.19h1.79l4.32.89,1.64-1.19,4.47.15,4.47,2.53.15,6.86,1.04,1.79,2.83,1.79v3.43l1.19,1.64,1.94,4.77.15,1.94,1.04,3.13.6,2.38.75,1.79,4.02,5.07,2.38,4.02.3,1.94,3.13,6.56,1.49,3.28,1.49,1.04,1.49,1.79,1.64,4.77-.6.89,2.68,5.51.15,1.49.45,3.28,2.53,2.83,1.49,1.19,1.34-1.49.6-4.17,1.94-1.34.89-3.58.3-2.09,2.68-.89,1.34-4.17,1.34-3.43,1.19-4.32,1.79-3.88.15-1.94,1.19-1.49,1.64-7.15.3-.6,1.94-4.77.3-.89,2.09-5.51-.3-.75,2.38-2.98.3-2.09,2.68-3.58-1.04-2.24,1.79-2.38,1.34-3.13,1.94-3.58,3.28-2.83,2.83.89,4.02-1.04,1.04-1.19,3.13.75,2.98,1.49,3.58-.89,3.88-1.64,1.34,2.38,2.83-.3,4.32,2.24-2.83,4.32Z" fill="#231f20"/>
  <path d="M1141.57,295.33l-2.68,1.94-2.09,1.49-2.98,3.28.45,3.73.15,1.64-1.19,2.83,1.94,2.98.15,3.88-1.64,4.02.6,2.53-.75,1.19.6,2.38-.45,2.83,1.34,3.88-1.34,4.77,1.19.45-1.04,4.02.3,1.79.75,2.83-1.19,4.47-.3,3.13.6,2.98,1.19,6.56-.89,2.98.3,1.79-1.04,1.49,1.19,4.92-.75,2.38,2.83,3.58,2.24,1.34,2.83-.3,4.17,2.38.6,3.88-2.98,2.98-3.88-.6-3.13,1.64-3.88-.89-1.04-.3-3.88-.75-4.32,1.64-2.24-.45-2.24-1.49-4.47,1.94-2.83-.89-3.13.3-1.79.6-4.17-2.09-2.53-2.24.3-.89,1.94-4.02,4.17-1.19,1.79-1.04,2.24-2.09,3.13-3.73.3-1.19-.6-5.37.6-.75-.3-5.81.15-.45-.89-4.62-.6-3.13.45-3.73-.15-5.51.3-2.83,1.49-1.34-1.34-3.88,1.94-3.88v-1.79l.45-4.77.75-.6-1.34-6.56.6-4.17-.15-1.04.45-3.13-1.19-2.83-.89-3.43.15-3.43-1.64-2.68-2.98-.45-3.43-3.73-3.13.45-1.64-4.47,2.38-2.83,2.24,1.19,4.62-1.19,1.94.89,2.09-2.38,4.32,2.24,2.98-2.09,1.64,2.68,4.02-2.24,3.58,1.79,1.79-1.19,3.43.6,2.98.3,3.58-.45,3.73,2.83-4.77,4.47Z" fill="#231f20"/>
  <path d="M1217.28,293.98l2.24,4.02,3.13,4.32v2.83l3.13,2.09,1.34,3.43.89,1.79.45,2.53,2.24,3.13,1.79,3.28,1.34,1.04,1.79,2.98,2.83,8.2.75,1.94,2.53,4.02.45,3.43,2.24,1.79.6,5.07.89,2.38,2.98,1.64,1.34,4.02,1.19-.15.6,2.68,2.83,2.38.89,5.22,1.94,1.94v1.49l2.53,3.58.6,2.38,1.94,3.58,1.79,1.04,2.09,3.43,1.04,3.28-3.43,3.43-3.58,1.19-2.09-1.04h-4.32l-1.04-.89-3.73.6-3.73,1.49-2.24-2.83-3.13,2.09-3.28-.3-3.43,1.04-2.53-2.53-3.88.3-2.53-2.38,3.28-6.71,2.09-.45,3.43-3.13.45-2.53-2.24-3.13v-3.28l-1.64-2.68-3.28-2.24-.89-2.38-3.58-1.49-3.13-3.28-3.43.45-5.37-1.94-2.98,2.83-3.88-2.24-3.13,1.34-2.68.3-2.68.6-1.94-1.04h-2.98l-4.77,3.43-1.04,2.24-.45.75-2.38,4.92-.75,2.53-.89.45-2.98,6.26-1.19,3.13,6.11,3.58,1.19-.15,2.98.75,2.53,2.09-2.98,3.88-2.38.15-4.47.15-2.38-.45-3.58-.45-1.49,2.38-3.13-1.79-3.73.45-4.32-.75-2.53,1.94-1.64-4.62,1.94-2.53,1.49-1.94,1.64-2.98,1.79-4.02,2.38-1.94-.3-3.43,2.83-1.04.45-3.13,2.09-4.02,1.04-1.64,1.79-3.13.6-2.38.45-2.09,1.49-3.13,1.34-1.79.75-2.68,1.79-3.43.45-3.43,3.43-2.38.3-3.73,1.79-.6,1.04-4.32v-3.58l1.34-.75,1.49-4.47,2.98-3.13.6-1.49.3-2.53,1.64-3.88,1.79-2.09,2.98-5.81,1.94-1.49-.15-4.32.75-3.43,2.53-2.83,4.17-1.34,2.98,1.04,4.77.75.75,4.32ZM1202.83,348.38l2.53,1.19h4.47l3.88.89,2.09-4.77-1.19-1.19.3-4.02-1.19-3.88.6-2.68-1.49-2.09-.3-3.73-.89-1.64-.45-4.17.75-3.73-.89-2.98-4.17-1.79-2.09,4.32.45,2.68-1.04,2.24-2.68,2.09-.89,3.73.15,4.17-1.34,2.38-2.53,6.11h-3.43l-3.43,5.81,2.98,1.34,6.71.45,3.13-.75Z" fill="#231f20"/>
  <path d="M1432.42,346.15l-1.19,2.38.45,1.19.45,4.92-1.64.89.6,3.13-.89,3.43-.15,1.34-2.09,3.43-2.38,4.02.45,1.64-2.68,2.68-1.19,1.79-2.83,2.24-1.19,3.13-2.53.89-5.81,2.98-3.43.6-1.49-.3-2.68,2.09-3.58.89-3.73,1.94-2.24.89-5.51-1.04-2.68.75-5.51,1.49-3.13-2.83-2.68,2.83-3.43-2.38-2.24-.15-3.58.75-2.53-.45-3.73-.15-2.98,1.79-3.13-.89-2.98.15-1.64.89-4.62-.15-1.94-1.19-3.88-1.04-2.83,1.64-2.24-1.79v-2.53l-.89-2.98,3.58-4.32,2.09-1.04,4.17,2.68,1.79-2.53,3.13-1.79.3-2.68.89-2.68-.75-4.47.89-.6-1.04-4.47,1.79-3.43v-3.43l-1.19-1.94,1.79-4.17-1.04-4.77-.45-2.83-1.19-1.79-.3-5.22,1.04-.3-.75-3.28.15-7.3.89-1.64-.15-3.88-.75-4.47-.15-3.88.45-2.24-2.09-1.64-1.79-5.81-5.22.6-2.53-2.09-2.09-6.26-.45-1.19,2.98-3.13,2.98-1.04,3.28-.6,3.43.89,1.94-.3,2.98,1.79,4.32,1.49,1.94-2.24,2.98,1.34,3.58,1.79,4.92-2.83,2.83,1.04,2.09-2.09,3.43-.15,4.02,1.64,3.88-.6,2.68-1.49h3.43l1.94-1.04,4.02,2.24,4.32.45,5.66,1.64,1.79-1.34,4.47,1.94h1.19l1.79,3.13,3.13,1.64,3.43.6.75,4.92h2.38l-.3,2.24,1.64,4.92,1.19,2.98.6,1.04,2.38,4.17.15,2.83.6,2.83-.15,4.17,1.19,2.53.75,3.88.3,3.28-1.04,4.77,1.04,4.62ZM1412.9,353.6l-.45-3.58-.3-4.32,1.04-1.94-.75-4.47-.6-2.09,1.34-3.58-.45-3.88-.45-2.24-.6-2.98-.6-2.98-2.68-4.47-2.68-1.04-1.34-.45-2.68-2.68-1.79-2.83-3.43-2.09-2.53-.15-2.53-.6-1.94-2.68-1.64-2.38-6.71-2.68-2.53,1.19-2.09.3-2.24,1.64-3.43.45h-2.68l-2.24,3.58v1.64l-1.64,4.77.6,1.19-.89,2.53.45,2.68-.15,3.28-.6,4.32v1.79l1.64,4.32-1.04,2.24.3,3.43-.6,4.02.89,1.34.15,4.77.45,2.98-.15,1.34-.89,3.73.45,3.13v1.49l.75,3.88.3,4.32,2.09,3.28,1.49.45,1.79,2.83,2.09,1.19,3.13,1.64,2.38,3.43,2.09.6,6.41-1.04,2.24-.89,3.73.6,1.19-4.17,2.68.45,2.24-3.13,1.19-3.43,2.09-2.09,3.58-2.24-.15-.6,1.79-1.94,1.94-3.28,2.83-6.86.15-1.04Z" fill="#231f20"/>
  <path d="M1524.83,292.79l1.19,2.53.3,5.37-.89,2.83,1.04,3.28-.75,3.43,1.19,2.38-3.73,1.34-2.83-1.79-1.49-3.43-1.49-2.68-3.28-5.37-.89.3-2.98-.15-3.13-1.64-2.53-2.83-4.92.75-4.62-.6-.89,1.34-2.98-.75-4.47,1.94-3.13.89-1.34-.15-2.38-1.19-4.02.75-2.53,2.83,1.19,4.77v4.77l-1.19,1.94.89,4.62,1.19,2.98-1.34,3.13.45,1.64.89,2.38,2.24,3.73,3.43.15,2.83.45,2.98-1.94,1.94,1.94,4.92.75,1.49-2.83,4.47-1.34,2.68-4.32.15-2.09,1.79-2.68,6.26-.45,2.24,1.49.45,3.13-.6,2.98.6,3.73.6,4.02-1.49,3.28.45,1.79-.15,2.38-.45,3.28.3,2.38,1.49,2.09-1.64,4.32-1.79,3.13-3.88-3.43-1.19-1.94-1.64-5.22-2.68-3.88-3.13.15-4.17,2.68-1.79-2.68-2.09.3-3.58,2.09-2.83-2.24-3.28,1.49-1.49.6-3.88,1.19.3,4.17,1.04,3.43.15,3.73,1.19,2.09-.3,7.3-1.79,3.13.3,2.68-.89,3.43.45,1.34,4.17.45,1.94,1.49,2.68-.3,3.13.45,3.73-1.79,2.24,2.24,2.53-1.04,4.47-1.04,1.49.6,3.88-.6,2.68,1.19,3.58.3,3.88-4.17,1.34-.45,1.64-4.77,2.53-1.79,1.04-2.38,2.53-2.09,1.49-3.58,4.02-.75.15,5.96-.15.75-.3,3.88.15,3.58-.6,2.24-1.04,4.62.89,1.19-.15,3.28-.6,2.53-3.13,4.32-3.28-1.79-3.73,2.53-2.24-.6-2.68-.89-4.47.6-.89-.89h-3.28l-4.32.15-2.83-.75-1.64,1.19-4.02-1.34-2.24,1.64-4.32-.45-1.49.6-3.43.89h-6.56l-2.83-1.34-1.64.89-4.17-1.79-2.24-.45-3.73.45-2.38,1.79-2.68-.3-3.88-.89-2.98,1.19-2.68-2.09-2.38-1.64v-1.94l2.09-7.01,2.98-.45,3.88-2.38-.45-3.13.45-4.02,1.19-4.32-.3-1.19.89-7.9v-3.13l-.89-1.64-.3-3.58v-2.83l-.6-2.09-.45-2.98-.6-2.68-.6-5.07,1.34-1.19-1.49-3.88-.45-3.13,1.49-2.68-1.34-3.58-.3-4.02-.45-2.98.3-.45.15-5.51-1.64-2.98-.89-4.62-1.79-2.38-2.53-4.17,2.24-2.38,2.68-1.04,3.28-.89,2.98,1.19,2.53.75,3.88-.75,3.88-1.04h1.49l4.32,1.34,2.98-1.64,2.68,1.04,3.13,1.34,1.34-1.04,3.28.75,3.58-1.64,3.88-.75,1.19.3,3.88.89,3.73,1.49,3.13-1.64,1.49,1.64,3.28-1.19h3.13l2.24.45h3.73l4.17-.75,1.79.3,2.98,2.24-.3,2.53Z" fill="#231f20"/>
  <path d="M501.44,478.2v3.13l.75,2.83-.75,1.49-.75,2.09,1.04,4.02.3,3.73-.89,3.43,1.94,3.73-.75,4.77.45,1.64,1.49,3.88v1.19l-.89,3.88-.75,4.32.75,2.38-1.34,2.53,1.04,3.73-.45,1.04-1.04,4.32-1.04,1.34-.3,2.53-2.38,3.88-.45,3.43-2.24,2.53.45,1.79-3.28,3.13-1.49,1.04-.15,3.13-3.73,1.94-4.17,2.24-2.24,3.43-3.88-1.04-3.13,2.24-3.73.3-1.64,1.79h-4.77l-4.47,1.04h-2.09l-2.98-1.79-3.13.89-5.66-1.19-2.83-2.98-2.83-.45-2.09.6-3.73-1.64-1.19-2.68-2.38-.75-3.88-1.19-1.49-2.83-3.13-.89-1.49-3.28.3-2.38-3.43-2.09.45-3.73-1.94-2.83-.89-2.68.89-2.53-1.04-8.2-.3-1.04,1.04-3.43-.3-4.62h1.19l-.15-3.58.15-2.98-1.19-4.32v-3.13l-.3-2.98.45-3.43.6-1.94v-2.09l1.19-3.88-1.94-1.34.15-3.88-.15-3.13-.15-2.98,1.34-2.68-3.58-1.94-4.02-.6-4.17-1.49-4.02-3.73,4.62-3.13,2.09,1.79,4.17-.6,1.34.6,4.62-1.19,2.24.6,2.68-.15,2.38.45,3.58-.45,3.13-1.49,4.47,1.19,2.38.75,3.28-.6,3.58.6,1.94.89-3.28,6.11-2.53-1.34h-3.13l-2.09,5.37-.45,2.38-.75,2.98,1.79,2.38.15,1.94-1.19,3.88-.75,3.88.45,4.02,1.49,4.62-1.34,3.13.3,4.02v2.24l.89,4.17-.89,5.81-.89,4.17-.15,3.13,1.34,1.94-.75,2.83,1.34,3.13,1.19,2.68.89,2.98,3.88,2.83,2.53.15,3.73,2.24,3.28,1.34,3.28,1.04,3.43.6,2.24-.15,3.13,2.38,1.94-.45,5.96.3,3.88-5.37,7.3-3.73.89-2.68,1.79-5.66-1.19-.75,1.64-7.45-1.64-2.24-.15-2.83.75-3.88-1.49-2.83.3-2.09-1.64-3.73v-2.53l-1.94-4.02.3-4.02.15-1.94,3.28-6.11,1.04-7-.3-1.64.45-4.47.75-1.64-.15-1.49-5.81-3.73-2.09.15-3.13-5.81,1.49-1.94,3.28.15,3.43-.75,3.43,2.24,1.34-1.04,3.88-.3,3.73,1.79,1.79-.45,3.58.15,3.13-2.24,2.53,2.38h3.73l1.64.3-3.43,3.58-3.28,1.64-2.53-.89-1.04,5.81Z" fill="#231f20"/>
  <path d="M624.69,474.03l-3.88-.15-3.73,2.38-1.04,1.04-1.94,4.02-.15,1.49,2.09,4.02-1.94,3.43,1.94,1.64-2.09,4.32,2.09,2.68-.45,4.17-1.19,3.73v1.64l1.19,7.3-.89,3.73,1.04,2.09-1.64,4.17.75,1.34.45,3.28v3.73l-.45,4.02.15,4.77-.15.89-1.34,7.45.45,1.79-.75,3.58.3,2.98.45,2.09.15,3.88-.15,3.88-3.88,2.24-2.83-.6-2.24-.15-3.28-.75-4.17-1.49-1.94-5.81-.6-2.83-1.49-1.19-1.19-4.02-1.34-3.13-2.53-1.19-4.17-3.13-1.79-2.98-2.24-2.98-.89.6-2.24-2.09-4.92-5.07.6-3.73-1.64-2.53-1.34-1.04-1.94-3.28-.6-1.34-2.98-3.28-1.04-2.38-1.64-4.62-1.34-.75-1.49-1.79-.75-4.92-2.24-2.68-3.58-1.79-1.04-3.73-3.13-2.98-1.19,1.04-.15,4.62-.3.89-.6,2.53,1.64,3.88-2.09,4.32.6,2.98-.15.89,1.34,4.47.3,2.38v6.56l-1.34,1.34-.15,3.43v2.24l1.34,2.68.45,4.02-1.34,2.83.45,2.83-.15,4.32-.15,2.38,2.53,3.28,2.83,3.28,2.53.6,1.64,6.86-3.13,1.19-3.43.75-2.68.6-4.92-1.64-1.49,1.94-2.53.45-4.02-.45-2.38-.3-3.28-1.04-4.47.75-2.24-.75-2.53-2.53v-2.24l2.68-2.24,4.02-1.04,3.43-2.38,2.98-3.73.6-3.88-.6-1.04.3-4.62-1.04-2.98-.89-5.51.3-2.98.15-4.32,1.19-3.43-.3-1.34.15-6.71.6-3.88-1.34-2.38-.15-1.34,1.49-4.77-.75-6.26-.45-1.19.75-2.98-.45-4.77-1.64-3.73-.15-1.34-.3-4.92-3.13-3.13-2.09-.89-3.73-.75-2.09-5.22-.6-2.98,4.02-2.24,2.98,1.49,2.98.15,3.28-2.83,3.88,1.94,2.98-1.49,2.24,2.38h2.98l5.07,2.38,4.17,5.66,2.53,2.24,2.24,1.04.45,2.83,4.02,2.53,1.79,3.73,1.64,1.49,2.83,1.94,1.64,2.68.3,2.83,1.94,2.53,2.09,2.53,4.77,3.88,1.34,2.09,1.94,1.34,1.79,2.98,4.02,4.92.15,4.17,3.28,1.04.75,4.32.6,1.64,3.28,3.43.75,3.13,2.38.15,3.58,3.58-.75-1.49,2.09-4.62-.6-2.38.6-3.13-.45-4.32-1.19-.6-.15-3.73,1.04-3.43.3-4.62-.6-5.51-.6-2.38-.3-3.58,1.04-.75-.45-4.92-.3-4.47v-4.77l.45-4.32-2.24-5.51-5.51-1.19-3.88-.3-2.83-2.38,4.62-5.37,1.19,2.24,4.62-1.79,3.43-.15,2.24.3,3.73-.3,2.68.15,1.94,1.19,3.58-1.04,4.17,1.04,2.38-.3,2.53,1.34-.75,5.96Z" fill="#231f20"/>
  <path d="M1113.03,483.42l-1.04,2.83.6,5.51.45,2.98.6,2.68-4.62,2.98-3.88-5.51-.75-2.24-.45-5.37-1.34-2.83-2.98-.89-.6-1.19-3.88-2.98-1.64-.15-3.43-.89-3.13-.89-4.92-2.24-4.77.6-2.24,2.24-2.53,2.68-2.98,1.34-.89,3.58,1.49,3.43-1.94,1.64,1.94,5.22,3.73,3.43,2.09.15,2.09,3.88,2.09,1.34,3.28,1.04,1.94,1.64,2.98.45,4.47,2.09,1.79,1.34,1.79,3.13,3.88-.6,1.64.75,2.83,3.28,5.96,3.88,1.94,1.04,1.64,2.24.75,2.24,2.09,2.38.75,4.92v1.49l2.38,7.6-1.04,1.79.15,2.38-.75,2.24-1.34,3.13-.45,3.58-2.68,1.49-1.49,4.62-2.83,2.09-4.02,1.64-2.83.3-1.79,1.49-4.02.3-2.53,2.09-6.71-.6h-2.83l-1.94.75-4.02,1.04-2.38-1.34-3.88-1.64-2.98-.45-1.64,1.04-5.07-1.19-2.24-1.04-5.51,3.13-2.68-5.07.45-1.04v-7.15l-.45-2.38-.3-3.73-.45-1.04-.6-4.77.45-2.38-.45-3.73,2.98-1.34,4.32,2.53,1.94,3.88,1.34,1.34.89,3.88,2.09,3.73,2.38,1.79,1.49,1.94,3.13,1.79,3.13,2.53,2.98-1.04,3.28.89,5.66-.3,1.64.15,4.17-1.04,1.49-2.83,2.24-.75,1.79-2.68,2.53-7.15-.45-2.24-1.79-3.13-2.24-2.24-.6-2.83-2.38-1.94-2.53-4.17-3.28-.89-1.64-2.53-5.51-1.94-1.94-2.24-4.62-.15-1.34-2.83-2.98-.3-2.24-1.04-2.53-3.58-1.04.45-2.68-4.02-3.58-3.58-2.83-1.64-1.34-3.88-.15-5.96-1.34-1.19.45-3.13.3-2.68,1.04-3.43,1.79-7.45,2.68-.89,1.49-3.88,3.28.3,3.28-1.04,4.32-3.73,2.24-2.24h2.98l2.09-.45h2.83l2.98.89,3.43.3,3.88-.89,4.62,2.68,4.02-.6.75,1.19,5.07-1.19,5.07.45.75,2.24,1.49,1.94.45,2.68-.75,5.66.75,2.09Z" fill="#231f20"/>
  <path d="M1219.59,478.2v3.13l.75,2.83-.75,1.49-.75,2.09,1.04,4.02.3,3.73-.89,3.43,1.94,3.73-.75,4.77.45,1.64,1.49,3.88v1.19l-.89,3.88-.75,4.32.75,2.38-1.34,2.53,1.04,3.73-.45,1.04-1.04,4.32-1.04,1.34-.3,2.53-2.38,3.88-.45,3.43-2.24,2.53.45,1.79-3.28,3.13-1.49,1.04-.15,3.13-3.73,1.94-4.17,2.24-2.24,3.43-3.88-1.04-3.13,2.24-3.73.3-1.64,1.79h-4.77l-4.47,1.04h-2.09l-2.98-1.79-3.13.89-5.66-1.19-2.83-2.98-2.83-.45-2.09.6-3.73-1.64-1.19-2.68-2.38-.75-3.88-1.19-1.49-2.83-3.13-.89-1.49-3.28.3-2.38-3.43-2.09.45-3.73-1.94-2.83-.89-2.68.89-2.53-1.04-8.2-.3-1.04,1.04-3.43-.3-4.62h1.19l-.15-3.58.15-2.98-1.19-4.32v-3.13l-.3-2.98.45-3.43.6-1.94v-2.09l1.19-3.88-1.94-1.34.15-3.88-.15-3.13-.15-2.98,1.34-2.68-3.58-1.94-4.02-.6-4.17-1.49-4.02-3.73,4.62-3.13,2.09,1.79,4.17-.6,1.34.6,4.62-1.19,2.24.6,2.68-.15,2.38.45,3.58-.45,3.13-1.49,4.47,1.19,2.38.75,3.28-.6,3.58.6,1.94.89-3.28,6.11-2.53-1.34h-3.13l-2.09,5.37-.45,2.38-.75,2.98,1.79,2.38.15,1.94-1.19,3.88-.75,3.88.45,4.02,1.49,4.62-1.34,3.13.3,4.02v2.24l.89,4.17-.89,5.81-.89,4.17-.15,3.13,1.34,1.94-.75,2.83,1.34,3.13,1.19,2.68.89,2.98,3.88,2.83,2.53.15,3.73,2.24,3.28,1.34,3.28,1.04,3.43.6,2.24-.15,3.13,2.38,1.94-.45,5.96.3,3.88-5.37,7.3-3.73.89-2.68,1.79-5.66-1.19-.75,1.64-7.45-1.64-2.24-.15-2.83.75-3.88-1.49-2.83.3-2.09-1.64-3.73v-2.53l-1.94-4.02.3-4.02.15-1.94,3.28-6.11,1.04-7-.3-1.64.45-4.47.75-1.64-.15-1.49-5.81-3.73-2.09.15-3.13-5.81,1.49-1.94,3.28.15,3.43-.75,3.43,2.24,1.34-1.04,3.88-.3,3.73,1.79,1.79-.45,3.58.15,3.13-2.24,2.53,2.38h3.73l1.64.3-3.43,3.58-3.28,1.64-2.53-.89-1.04,5.81Z" fill="#231f20"/>
  <path d="M1319,471.64l1.19,2.53.3,5.37-.89,2.83,1.04,3.28-.75,3.43,1.19,2.38-3.73,1.34-2.83-1.79-1.49-3.43-1.49-2.68-3.28-5.37-.89.3-2.98-.15-3.13-1.64-2.53-2.83-4.92.75-4.62-.6-.89,1.34-2.98-.75-4.47,1.94-3.13.89-1.34-.15-2.38-1.19-4.02.75-2.53,2.83,1.19,4.77v4.77l-1.19,1.94.89,4.62,1.19,2.98-1.34,3.13.45,1.64.89,2.38,2.24,3.73,3.43.15,2.83.45,2.98-1.94,1.94,1.94,4.92.75,1.49-2.83,4.47-1.34,2.68-4.32.15-2.09,1.79-2.68,6.26-.45,2.24,1.49.45,3.13-.6,2.98.6,3.73.6,4.02-1.49,3.28.45,1.79-.15,2.38-.45,3.28.3,2.38,1.49,2.09-1.64,4.32-1.79,3.13-3.88-3.43-1.19-1.94-1.64-5.22-2.68-3.88-3.13.15-4.17,2.68-1.79-2.68-2.09.3-3.58,2.09-2.83-2.24-3.28,1.49-1.49.6-3.88,1.19.3,4.17,1.04,3.43.15,3.73,1.19,2.09-.3,7.3-1.79,3.13.3,2.68-.89,3.43.45,1.34,4.17.45,1.94,1.49,2.68-.3,3.13.45,3.73-1.79,2.24,2.24,2.53-1.04,4.47-1.04,1.49.6,3.88-.6,2.68,1.19,3.58.3,3.88-4.17,1.34-.45,1.64-4.77,2.53-1.79,1.04-2.38,2.53-2.09,1.49-3.58,4.02-.75.15,5.96-.15.75-.3,3.88.15,3.58-.6,2.24-1.04,4.62.89,1.19-.15,3.28-.6,2.53-3.13,4.32-3.28-1.79-3.73,2.53-2.24-.6-2.68-.89-4.47.6-.89-.89h-3.28l-4.32.15-2.83-.75-1.64,1.19-4.02-1.34-2.24,1.64-4.32-.45-1.49.6-3.43.89h-6.56l-2.83-1.34-1.64.89-4.17-1.79-2.24-.45-3.73.45-2.38,1.79-2.68-.3-3.88-.89-2.98,1.19-2.68-2.09-2.38-1.64v-1.94l2.09-7,2.98-.45,3.88-2.38-.45-3.13.45-4.02,1.19-4.32-.3-1.19.89-7.9v-3.13l-.89-1.64-.3-3.58v-2.83l-.6-2.09-.45-2.98-.6-2.68-.6-5.07,1.34-1.19-1.49-3.88-.45-3.13,1.49-2.68-1.34-3.58-.3-4.02-.45-2.98.3-.45.15-5.51-1.64-2.98-.89-4.62-1.79-2.38-2.53-4.17,2.24-2.38,2.68-1.04,3.28-.89,2.98,1.19,2.53.75,3.88-.75,3.88-1.04h1.49l4.32,1.34,2.98-1.64,2.68,1.04,3.13,1.34,1.34-1.04,3.28.75,3.58-1.64,3.88-.75,1.19.3,3.88.89,3.73,1.49,3.13-1.64,1.49,1.64,3.28-1.19h3.13l2.24.45h3.73l4.17-.75,1.79.3,2.98,2.24-.3,2.53Z" fill="#231f20"/>
  <path d="M1367.74,473.58l-.75.15-6.56,5.07-2.98,4.92v1.64l1.34,2.98,1.34,1.94-.45,3.58,1.04,4.62v2.38l.3,4.92-1.94,4.02,1.64,2.09-1.49,3.73-.75,2.98-.15,2.38-.45,2.09.15,2.53.89,3.88v4.47l-.45,2.98-.75,2.09-1.04,2.09v6.26l1.49,2.09-1.19,5.07,4.02,2.83,2.83.3,2.09-1.79,3.73,1.19,3.28.3,3.43-.89,1.34.89,4.17.45,1.79-.45,3.43.3h2.53l3.13.6,5.96-3.73.3-3.13,2.38-.89,2.68-6.11-.75-2.83,1.34-2.09,4.92-2.68,3.73,2.68-.45,5.51-.75,1.34v6.41l-1.49,3.58-.3,1.64-1.34,3.58-1.94,4.32-.75,1.64-3.58,2.83-3.88-.75-2.83,1.04-2.24-.45-3.28.15-1.34,1.64-4.17-.45-3.73-1.79-1.94,1.64-2.83-1.34-2.53,1.04-3.43.15-3.88-1.19-2.24-.45-1.64.45-5.07,1.34-1.94-1.19-3.28.45-2.98,1.64-3.13-.3-1.49-.89-4.17-1.49-3.13,2.24-2.09-1.34-3.88.3-2.68-1.49-1.49-.75,4.02-4.47,2.53-2.68,2.98-1.19,1.64-5.81-.15-.6.89-5.37-1.19-4.92v-1.19l-.45-4.62-.3-2.68.3-2.98-.45-2.98.75-4.62.6-4.17-.15-2.09.75-5.37,1.94-.75.75-3.73-.3-4.47-1.34-2.53-.15-3.43,1.04-2.24-.6-4.32-.15-6.56.15-1.64-3.73-5.51-2.38-1.64-3.13-.6-2.38-.3-2.38-2.38-1.04-4.47,3.73-.89,3.88-1.34,2.53-.45,1.79,2.09,3.28.45,4.62-1.04,1.49,1.04,3.73-2.83,3.73,1.34,2.68.75,2.83-.6,2.98-.3,3.58.3,2.68-.75,2.68,3.88-4.02,3.73Z" fill="#231f20"/>
  <path d="M1514.4,507.11l-.3,4.17v.45l.3,3.13,1.04,2.98-.3,5.22-.75,1.34-1.04,4.47-.89,1.64.15,2.38.45,2.38-1.79,4.77-1.64,3.43-.45.3-.6,3.88-1.19,2.24-2.68,4.02-1.49,2.24-2.98.75-1.49,1.19-1.64,2.53-5.51,4.77-1.64-.6-3.13,2.83-2.53.89-3.88-1.19-1.94.75-2.38.89-5.22,2.83-4.32-2.09-2.53,2.09-3.13-1.04-2.24-1.34-2.98-.45-5.22-2.24-1.94,1.64-3.58-1.94-1.49-.6-3.73-2.38-2.98,1.04-.89-2.53-2.53-1.94-2.83-1.34-1.64-4.17-2.83-.15-.6-2.38-1.04-3.73-.6-2.09-1.79-5.07-1.34-3.28-.45-2.98-.75-6.11-1.04-1.34.75-2.83-1.19-2.83v-3.88l-.75-3.88.45-2.24.3-3.73,1.04-1.94.3-2.98,1.04-2.53.3-3.13,1.94-2.24,1.94-2.83,1.19-3.58,1.49-.89.15-1.94,2.53-3.28,2.98-1.64,3.43-4.77,2.98-3.13,1.49.75,2.98-1.04,3.73-1.94,2.53-1.79,2.38.3,2.83-.3,3.58.15,3.13-.45,4.47-2.09,7.15,1.94,2.24-.15,3.73.75,1.64-.75,3.43,2.53h2.98l3.88,3.28,3.13-.75,2.38,3.13,1.19,1.19,3.43.75,2.83,6.56.75.6,2.53,2.68,1.64,3.88.45,2.09.89,3.88,2.98,5.37.75,3.43ZM1495.62,528.58l-.3-3.58-1.64-4.77.45-1.64v-2.68l1.19-4.47-.89-.6v-4.62l-1.34-1.34.15-4.17-.15-5.51-2.09-5.96-5.66-3.43-2.24-.45-3.73-.45-5.51-3.58-2.24-1.04-2.98-.75-2.83.6-3.13-.45-2.38-.45-5.96,2.09-2.68,2.09-1.79,2.68-2.38,2.83-4.47,3.13-1.49,3.88-2.68,1.34.6,1.49-1.34,2.68-1.04,3.28-.89,5.07-1.49,2.83.15,1.04,1.79,4.02,1.64,4.62,1.79,3.73-1.19,3.13,1.94,3.28-2.09,2.68,1.79,3.58-1.04,2.24,1.49,1.49,1.04,4.02,1.04,1.19-.3,4.47,2.68.45,6.56,3.43,1.04.75,4.02-.3,3.58-.45,2.24,1.19,3.13,1.64,2.09-2.24,2.38-.15,3.73,1.79,5.66-3.88,5.51-.15,5.07-2.98.75-3.88.3-5.22,2.38-3.28-.3-2.09,1.64-4.77.45-3.43Z" fill="#231f20"/>
  <path d="M503.22,650.79l-.45,2.83.15,2.98-.15,3.43,2.09,2.09-1.64,2.24,2.09,5.81-3.58,1.04-4.47-1.64-.45-5.07.6-.89-4.47-2.98-6.56-3.43-.89,1.04-4.77.15-5.81-2.24-1.19.45-3.88,1.49-3.43-1.79-2.53,1.49h-3.43l-2.68-.3-2.98-.89-3.88,4.47.6,2.83.89,1.64-1.34,5.37h1.04l.3,4.62-.89,3.43.89.6.6,4.02-1.94,2.68,3.13,3.88,4.17-1.94,3.43.45,3.13,2.24h2.53l2.38-.75,2.98-.75,5.07-2.98.89-2.24,1.79-3.58,2.68-2.09,3.73-1.19,3.43,1.94.15,3.13-.89,2.83,1.34,4.17-.3,3.58.3,2.53-.6,2.68-.3,3.13.45,1.64-.15,4.02-2.24,4.62-5.07-2.09-.45-2.38-3.43-4.92-3.88.3-3.13.45-3.58-.15-2.98-2.09-2.38.45-1.49-.15h-4.17l-2.83,1.04-2.83,3.88v1.64l-1.49,2.53.6,7.01-.75,1.64.15,5.51-.15,2.98,1.19,2.38-.6,2.98-.89,3.28,2.24,2.24,2.98-.3,2.98,3.13,2.24,3.13,1.49,2.09-4.32,4.77-2.83-.45-2.09.45-3.28-2.09-3.13,1.64h-1.64l-3.88-.6-3.88.89-.89-2.38-4.02,1.04-1.94-1.04-4.47,1.19-6.26-3.58,2.09-1.19-.15-4.02,1.34-2.24,2.24.3,3.13-5.66.89-2.83-1.04-3.73.15-.89.3-3.28.6-3.13.75-3.43-1.49-2.38,1.04-1.79-.15-5.66.15-1.49-.3-1.64-.45-2.83,1.19-4.47-.3-4.47.3-3.58.75-3.13-1.04-1.94,1.49-2.83-.89-4.17-1.19-3.88,1.34-1.64.3-3.43.45-3.43-1.94-1.04-2.38-6.41h-2.09l-.89-2.53-4.17-4.32,3.58-3.43,2.24-1.04,2.98,1.94,3.13-1.49,4.17.75,3.43.3,1.04.89,2.98-.45,2.98-1.79,4.17,1.49,1.94.75,3.88-2.09h3.43l3.43.89,2.83-.45,1.34,1.04,2.53-.45,4.92-.75,1.94-.45,2.09,1.49,4.62-1.79,2.83-.15,1.64.3,3.28,2.24,3.28-1.79,3.58,1.79,1.94-.75,2.53,2.83,1.19,2.09Z" fill="#231f20"/>
  <path d="M604.37,750.05l-4.02,1.04-1.79-.6-4.62-.89-1.94,1.04-2.24-2.24-4.62.6-1.34-.3-4.47,2.53-2.53-5.22-2.38-2.09-1.34-.89-1.49-5.37-2.68-3.58.75-2.38-4.17-5.51-2.38-.75-1.79-2.24-6.11-4.62-1.34-2.98-2.83-1.64-1.79-2.68-3.43-.45-.75-3.43-2.38-2.24-3.28.3.45,3.73-1.19,2.38.89,2.68.6,4.92-.15,2.98-.15,1.79.89,1.49-.3,4.17.15,3.58,2.68,5.37,2.53-.45,1.04,3.28,3.13,1.64,3.13-.15,1.49,4.62-2.68,1.04-2.53,1.04-3.73-.89-2.98,1.04h-3.43l-3.28.3-1.19.3-3.13-1.34-4.17,2.24-3.13-1.19h-1.94l-3.58.6-3.28-2.24-1.49,2.38-4.92-3.88,4.77-4.47,3.28-.75,3.28-4.62,2.09-.3-.3-3.13,2.24-4.77-1.04-3.58-.15-2.83-.15-4.77.6-1.04-.45-3.73.75-7-1.19-3.88.3-1.19-1.19-3.58.45-5.51.6-5.51,1.49-2.38.15-2.09-.6-6.71.45-3.58-1.19-2.24-.15-1.19-1.34-7.3-3.58-2.24-2.38-1.34-3.43-1.49-1.34-4.02-.3-2.24.89-4.02,3.73,1.19,1.49-1.19,4.62-1.04,1.34-.15,4.92,2.38,1.34-1.94,5.07.3,1.19.89,3.73-.15,2.24.45h3.43l2.83-.75,4.32.15,2.68-.3,1.79.75,3.28.15,3.73.15,3.13.6,2.98.3,2.53,2.24,1.49-1.19,2.98.45,3.28,2.38,4.77,2.53.75,2.38,1.04,4.62,1.19,1.64,2.68,1.19-.75,4.32,2.53,1.49-1.34,4.62,1.04,1.94-1.64,3.73-.45,1.34-2.24,6.86-1.19,1.34-2.38,3.73h-3.58l-.89,2.68h-2.98l-3.73,1.19-1.94,1.49-3.28.6-1.34,2.68,2.98,4.47h.75l2.53,2.24,1.19,3.58,3.13,1.34,2.53,3.28,1.49,3.43,1.49,2.38,1.94-.15,1.19,4.17,3.58,3.73,1.94,4.47,1.04,1.04,4.47,4.92,3.28.45,2.83,2.83,3.13,2.83-1.19,3.58ZM567.55,685.37l1.79-3.88-.15-7.15,1.79-1.64,1.64-6.11-.45-4.32-3.28.3-3.28-3.58-2.68.75-2.98-2.53-3.28,2.38-3.43-1.94-3.73-.45-3.58.15-1.19,2.68-3.28,3.28-.3,1.79.15,2.24-1.04,5.07.75,3.58.15,3.58.3,1.94.45,3.73,1.49,5.66,4.32,1.19,1.79-3.43,5.66-.6,2.98,1.64,6.11-.45,3.28-3.88Z" fill="#231f20"/>
  <path d="M680.32,651.68l2.24,4.02,3.13,4.32v2.83l3.13,2.09,1.34,3.43.89,1.79.45,2.53,2.24,3.13,1.79,3.28,1.34,1.04,1.79,2.98,2.83,8.2.75,1.94,2.53,4.02.45,3.43,2.24,1.79.6,5.07.89,2.38,2.98,1.64,1.34,4.02,1.19-.15.6,2.68,2.83,2.38.89,5.22,1.94,1.94v1.49l2.53,3.58.6,2.38,1.94,3.58,1.79,1.04,2.09,3.43,1.04,3.28-3.43,3.43-3.58,1.19-2.09-1.04h-4.32l-1.04-.89-3.73.6-3.73,1.49-2.24-2.83-3.13,2.09-3.28-.3-3.43,1.04-2.53-2.53-3.88.3-2.53-2.38,3.28-6.71,2.09-.45,3.43-3.13.45-2.53-2.24-3.13v-3.28l-1.64-2.68-3.28-2.24-.89-2.38-3.58-1.49-3.13-3.28-3.43.45-5.37-1.94-2.98,2.83-3.88-2.24-3.13,1.34-2.68.3-2.68.6-1.94-1.04h-2.98l-4.77,3.43-1.04,2.24-.45.75-2.38,4.92-.75,2.53-.89.45-2.98,6.26-1.19,3.13,6.11,3.58,1.19-.15,2.98.75,2.53,2.09-2.98,3.88-2.38.15-4.47.15-2.38-.45-3.58-.45-1.49,2.38-3.13-1.79-3.73.45-4.32-.75-2.53,1.94-1.64-4.62,1.94-2.53,1.49-1.94,1.64-2.98,1.79-4.02,2.38-1.94-.3-3.43,2.83-1.04.45-3.13,2.09-4.02,1.04-1.64,1.79-3.13.6-2.38.45-2.09,1.49-3.13,1.34-1.79.75-2.68,1.79-3.43.45-3.43,3.43-2.38.3-3.73,1.79-.6,1.04-4.32v-3.58l1.34-.75,1.49-4.47,2.98-3.13.6-1.49.3-2.53,1.64-3.88,1.79-2.09,2.98-5.81,1.94-1.49-.15-4.32.75-3.43,2.53-2.83,4.17-1.34,2.98,1.04,4.77.75.75,4.32ZM665.86,706.08l2.53,1.19h4.47l3.88.89,2.09-4.77-1.19-1.19.3-4.02-1.19-3.88.6-2.68-1.49-2.09-.3-3.73-.89-1.64-.45-4.17.75-3.73-.89-2.98-4.17-1.79-2.09,4.32.45,2.68-1.04,2.24-2.68,2.09-.89,3.73.15,4.17-1.34,2.38-2.53,6.11h-3.43l-3.43,5.81,2.98,1.34,6.71.45,3.13-.75Z" fill="#231f20"/>
  <path d="M827.51,645.87l5.66-3.58,1.64,2.98.3,2.98.45,3.28v4.77l-.15.45-.45,4.32.89,3.28v3.58l-.15,4.02-.15,3.13-2.68,2.98-4.62-.89-2.24-4.92-.6-1.94-2.38-4.62h-2.98l-4.17.3-3.43-2.24-1.04-1.04-4.17-1.04-2.68.6-4.17-3.58-4.62.75-2.38.89-3.73-.15-1.49-.45-3.73.75-1.94,3.58-2.68.6-3.58,4.62-2.24,4.17-2.24,1.94-1.19.6.15,2.68-2.68,4.17.75,3.43-.89,1.49-.6,5.51,1.49.75,2.24,6.86,2.24,2.38-1.34,3.73-.15,2.83,1.79,3.13-.6,2.68-.89,1.94,1.34,2.24v3.73l1.94,1.94.45,1.94,3.28,2.09,4.62,2.38,4.92,2.38,2.53-1.94,3.13,2.83,3.13-.45,3.28-2.53,2.83.3,2.98-1.19.89-1.19,4.92-2.38,2.53,1.34,1.94-.75,6.71-2.53,2.53-1.64,1.04-1.79,5.66.3.89,2.09,2.53.3,1.34,2.24-2.83,4.92-2.53,1.64-1.49,2.24-1.64,1.64-2.24,2.83-4.77,2.09-1.79.75-2.98.45-3.88,3.28-1.34-.75-2.83,1.64-2.98,1.49-7.3-.89-1.94-.15-3.13,2.09-3.28-2.68-2.24,1.04-3.43-1.34-6.26-1.34-.89.75-3.58-1.79-2.53-1.94-2.68.6-2.68-2.83-3.43-1.34-.45-1.64-2.24-2.98-2.68-.89-2.68-4.02-1.34-2.09-.6-2.38-1.34-3.28-1.04-1.94.3-3.13-1.79-3.28-.15-5.96-.89-4.32,1.19-1.64-2.38-5.22.89-1.34.6-2.24.15-4.47-.6-4.17,1.19-2.83-.3-1.49.75-3.58,1.19-2.38,1.34-2.24,2.24-2.83,1.04-1.94,2.53-3.73-.45-3.13,3.28-2.24,1.94-.75,2.24-4.32,3.13-3.13,1.94-.3,4.32-.75,2.68-2.09,3.43-.89,2.53,1.04,1.64-1.34,3.13.15,2.98-1.94,4.32-1.19,2.98.3,4.92,1.49,4.32-.75,2.38.89,1.49.15,3.43,1.64,2.83,2.68,3.88.89,2.24.3,3.88-.15.3-4.32Z" fill="#231f20"/>
  <path d="M943.56,651.83l1.49,3.58-1.49,1.49,1.49,2.53-.75,2.83-.6,2.24.89,4.02-1.49,1.79-2.09,1.79-4.17-1.19.89-2.38-2.53-6.56-1.79-3.43-6.11-2.09-2.98-.75-3.43.45-1.79,1.64-4.17-2.68-2.83.89-4.17,4.02v7.75l.89,1.79v1.79l-.15,3.28-1.19,3.58,1.04,4.02-.6,2.53-1.49,2.98,1.04,2.38.45,1.34-1.79,3.58,1.79,2.98-.75,2.24-.45,2.68-1.04,2.68,2.09,5.81-.3,3.88-1.19,1.64.6,4.32.45,2.98.3,6.56-.75.75,1.64,4.32-.75,3.28,1.79,1.34,4.77,2.09h1.19l3.73.6,2.83,2.53-3.13,5.51-2.98-.75-2.53-.75-2.38-.45-4.02.75-1.79.6-2.38-1.04-4.62-1.04-1.64,1.79-3.58-1.49-2.98,1.79-2.53-1.04-2.53,1.34-4.17-1.19-1.79.6-3.28-4.62,3.58-5.07,2.53-.15,3.58-.89,4.62-2.68-.75-3.28.75-3.58-.3-1.34-.3-5.81,1.49-2.53-.3-2.53-.15-3.28.3-4.02-1.04-3.58,1.49-2.53-1.94-3.73.15-3.13-.3-2.53.75-2.38-.45-2.98-.6-4.62-.15-2.53.75-4.32-.3-4.77v-2.24l.89-3.58-1.19-3.13,1.79-2.24-.6-2.53-2.09-4.02-2.98-.15-4.77,1.49-1.49,1.19-3.43-1.34-2.83-.6-3.73.3-2.09,1.94-3.58,2.24.45,4.02-.6,2.83-1.79,2.09-1.04,1.64-5.37,4.17-2.98-3.43-.75-3.43.75-3.88,1.49-2.53-.75-2.83.75-1.49-1.04-3.58,1.04-1.94,1.19-3.13,1.64-4.62,2.98,1.64,2.98-1.34,4.32.15,2.53-.3,3.58.15,3.28-.6,2.09.6h2.24l2.83,1.34,4.77.45,3.28-1.79h1.79l2.24-1.04,5.07,1.34,1.79-1.19,2.38,1.34,4.32-.75,2.98.45,1.94,1.34,3.73-1.64h3.88l2.53-.3,2.98-.3,2.83-.15,2.68,1.64,2.83.75,4.17-2.09,1.79,2.53,4.02,1.79-1.34,3.13Z" fill="#231f20"/>
  <path d="M1050.22,657.05v3.13l.75,2.83-.75,1.49-.75,2.09,1.04,4.02.3,3.73-.89,3.43,1.94,3.73-.75,4.77.45,1.64,1.49,3.88v1.19l-.89,3.88-.75,4.32.75,2.38-1.34,2.53,1.04,3.73-.45,1.04-1.04,4.32-1.04,1.34-.3,2.53-2.38,3.88-.45,3.43-2.24,2.53.45,1.79-3.28,3.13-1.49,1.04-.15,3.13-3.73,1.94-4.17,2.24-2.24,3.43-3.88-1.04-3.13,2.24-3.73.3-1.64,1.79h-4.77l-4.47,1.04h-2.09l-2.98-1.79-3.13.89-5.66-1.19-2.83-2.98-2.83-.45-2.09.6-3.73-1.64-1.19-2.68-2.38-.75-3.88-1.19-1.49-2.83-3.13-.89-1.49-3.28.3-2.38-3.43-2.09.45-3.73-1.94-2.83-.89-2.68.89-2.53-1.04-8.2-.3-1.04,1.04-3.43-.3-4.62h1.19l-.15-3.58.15-2.98-1.19-4.32v-3.13l-.3-2.98.45-3.43.6-1.94v-2.09l1.19-3.88-1.94-1.34.15-3.88-.15-3.13-.15-2.98,1.34-2.68-3.58-1.94-4.02-.6-4.17-1.49-4.02-3.73,4.62-3.13,2.09,1.79,4.17-.6,1.34.6,4.62-1.19,2.24.6,2.68-.15,2.38.45,3.58-.45,3.13-1.49,4.47,1.19,2.38.75,3.28-.6,3.58.6,1.94.89-3.28,6.11-2.53-1.34h-3.13l-2.09,5.37-.45,2.38-.75,2.98,1.79,2.38.15,1.94-1.19,3.88-.75,3.88.45,4.02,1.49,4.62-1.34,3.13.3,4.02v2.24l.89,4.17-.89,5.81-.89,4.17-.15,3.13,1.34,1.94-.75,2.83,1.34,3.13,1.19,2.68.89,2.98,3.88,2.83,2.53.15,3.73,2.24,3.28,1.34,3.28,1.04,3.43.6,2.24-.15,3.13,2.38,1.94-.45,5.96.3,3.88-5.37,7.3-3.73.89-2.68,1.79-5.66-1.19-.75,1.64-7.45-1.64-2.24-.15-2.83.75-3.88-1.49-2.83.3-2.09-1.64-3.73v-2.53l-1.94-4.02.3-4.02.15-1.94,3.28-6.11,1.04-7-.3-1.64.45-4.47.75-1.64-.15-1.49-5.81-3.73-2.09.15-3.13-5.81,1.49-1.94,3.28.15,3.43-.75,3.43,2.24,1.34-1.04,3.88-.3,3.73,1.79,1.79-.45,3.58.15,3.13-2.24,2.53,2.38h3.73l1.64.3-3.43,3.58-3.28,1.64-2.53-.89-1.04,5.81Z" fill="#231f20"/>
  <path d="M1160.45,750.05l-4.02,1.04-1.79-.6-4.62-.89-1.94,1.04-2.24-2.24-4.62.6-1.34-.3-4.47,2.53-2.53-5.22-2.38-2.09-1.34-.89-1.49-5.37-2.68-3.58.75-2.38-4.17-5.51-2.38-.75-1.79-2.24-6.11-4.62-1.34-2.98-2.83-1.64-1.79-2.68-3.43-.45-.75-3.43-2.38-2.24-3.28.3.45,3.73-1.19,2.38.89,2.68.6,4.92-.15,2.98-.15,1.79.89,1.49-.3,4.17.15,3.58,2.68,5.37,2.53-.45,1.04,3.28,3.13,1.64,3.13-.15,1.49,4.62-2.68,1.04-2.53,1.04-3.73-.89-2.98,1.04h-3.43l-3.28.3-1.19.3-3.13-1.34-4.17,2.24-3.13-1.19h-1.94l-3.58.6-3.28-2.24-1.49,2.38-4.92-3.88,4.77-4.47,3.28-.75,3.28-4.62,2.09-.3-.3-3.13,2.24-4.77-1.04-3.58-.15-2.83-.15-4.77.6-1.04-.45-3.73.75-7-1.19-3.88.3-1.19-1.19-3.58.45-5.51.6-5.51,1.49-2.38.15-2.09-.6-6.71.45-3.58-1.19-2.24-.15-1.19-1.34-7.3-3.58-2.24-2.38-1.34-3.43-1.49-1.34-4.02-.3-2.24.89-4.02,3.73,1.19,1.49-1.19,4.62-1.04,1.34-.15,4.92,2.38,1.34-1.94,5.07.3,1.19.89,3.73-.15,2.24.45h3.43l2.83-.75,4.32.15,2.68-.3,1.79.75,3.28.15,3.73.15,3.13.6,2.98.3,2.53,2.24,1.49-1.19,2.98.45,3.28,2.38,4.77,2.53.75,2.38,1.04,4.62,1.19,1.64,2.68,1.19-.75,4.32,2.53,1.49-1.34,4.62,1.04,1.94-1.64,3.73-.45,1.34-2.24,6.86-1.19,1.34-2.38,3.73h-3.58l-.89,2.68h-2.98l-3.73,1.19-1.94,1.49-3.28.6-1.34,2.68,2.98,4.47h.75l2.53,2.24,1.19,3.58,3.13,1.34,2.53,3.28,1.49,3.43,1.49,2.38,1.94-.15,1.19,4.17,3.58,3.73,1.94,4.47,1.04,1.04,4.47,4.92,3.28.45,2.83,2.83,3.13,2.83-1.19,3.58ZM1123.64,685.37l1.79-3.88-.15-7.15,1.79-1.64,1.64-6.11-.45-4.32-3.28.3-3.28-3.58-2.68.75-2.98-2.53-3.28,2.38-3.43-1.94-3.73-.45-3.58.15-1.19,2.68-3.28,3.28-.3,1.79.15,2.24-1.04,5.07.75,3.58.15,3.58.3,1.94.45,3.73,1.49,5.66,4.32,1.19,1.79-3.43,5.66-.6,2.98,1.64,6.11-.45,3.28-3.88Z" fill="#231f20"/>
  <path d="M1236.4,651.68l2.24,4.02,3.13,4.32v2.83l3.13,2.09,1.34,3.43.89,1.79.45,2.53,2.24,3.13,1.79,3.28,1.34,1.04,1.79,2.98,2.83,8.2.75,1.94,2.53,4.02.45,3.43,2.24,1.79.6,5.07.89,2.38,2.98,1.64,1.34,4.02,1.19-.15.6,2.68,2.83,2.38.89,5.22,1.94,1.94v1.49l2.53,3.58.6,2.38,1.94,3.58,1.79,1.04,2.09,3.43,1.04,3.28-3.43,3.43-3.58,1.19-2.09-1.04h-4.32l-1.04-.89-3.73.6-3.73,1.49-2.24-2.83-3.13,2.09-3.28-.3-3.43,1.04-2.53-2.53-3.88.3-2.53-2.38,3.28-6.71,2.09-.45,3.43-3.13.45-2.53-2.24-3.13v-3.28l-1.64-2.68-3.28-2.24-.89-2.38-3.58-1.49-3.13-3.28-3.43.45-5.37-1.94-2.98,2.83-3.88-2.24-3.13,1.34-2.68.3-2.68.6-1.94-1.04h-2.98l-4.77,3.43-1.04,2.24-.45.75-2.38,4.92-.75,2.53-.89.45-2.98,6.26-1.19,3.13,6.11,3.58,1.19-.15,2.98.75,2.53,2.09-2.98,3.88-2.38.15-4.47.15-2.38-.45-3.58-.45-1.49,2.38-3.13-1.79-3.73.45-4.32-.75-2.53,1.94-1.64-4.62,1.94-2.53,1.49-1.94,1.64-2.98,1.79-4.02,2.38-1.94-.3-3.43,2.83-1.04.45-3.13,2.09-4.02,1.04-1.64,1.79-3.13.6-2.38.45-2.09,1.49-3.13,1.34-1.79.75-2.68,1.79-3.43.45-3.43,3.43-2.38.3-3.73,1.79-.6,1.04-4.32v-3.58l1.34-.75,1.49-4.47,2.98-3.13.6-1.49.3-2.53,1.64-3.88,1.79-2.09,2.98-5.81,1.94-1.49-.15-4.32.75-3.43,2.53-2.83,4.17-1.34,2.98,1.04,4.77.75.75,4.32ZM1221.94,706.08l2.53,1.19h4.47l3.88.89,2.09-4.77-1.19-1.19.3-4.02-1.19-3.88.6-2.68-1.49-2.09-.3-3.73-.89-1.64-.45-4.17.75-3.73-.89-2.98-4.17-1.79-2.09,4.32.45,2.68-1.04,2.24-2.68,2.09-.89,3.73.15,4.17-1.34,2.38-2.53,6.11h-3.43l-3.43,5.81,2.98,1.34,6.71.45,3.13-.75Z" fill="#231f20"/>
  <path d="M1403.42,703.85l-1.19,2.38.45,1.19.45,4.92-1.64.89.6,3.13-.89,3.43-.15,1.34-2.09,3.43-2.38,4.02.45,1.64-2.68,2.68-1.19,1.79-2.83,2.24-1.19,3.13-2.53.89-5.81,2.98-3.43.6-1.49-.3-2.68,2.09-3.58.89-3.73,1.94-2.24.89-5.51-1.04-2.68.75-5.51,1.49-3.13-2.83-2.68,2.83-3.43-2.38-2.24-.15-3.58.75-2.53-.45-3.73-.15-2.98,1.79-3.13-.89-2.98.15-1.64.89-4.62-.15-1.94-1.19-3.88-1.04-2.83,1.64-2.24-1.79v-2.53l-.89-2.98,3.58-4.32,2.09-1.04,4.17,2.68,1.79-2.53,3.13-1.79.3-2.68.89-2.68-.75-4.47.89-.6-1.04-4.47,1.79-3.43v-3.43l-1.19-1.94,1.79-4.17-1.04-4.77-.45-2.83-1.19-1.79-.3-5.22,1.04-.3-.75-3.28.15-7.3.89-1.64-.15-3.88-.75-4.47-.15-3.88.45-2.24-2.09-1.64-1.79-5.81-5.22.6-2.53-2.09-2.09-6.26-.45-1.19,2.98-3.13,2.98-1.04,3.28-.6,3.43.89,1.94-.3,2.98,1.79,4.32,1.49,1.94-2.24,2.98,1.34,3.58,1.79,4.92-2.83,2.83,1.04,2.09-2.09,3.43-.15,4.02,1.64,3.88-.6,2.68-1.49h3.43l1.94-1.04,4.02,2.24,4.32.45,5.66,1.64,1.79-1.34,4.47,1.94h1.19l1.79,3.13,3.13,1.64,3.43.6.75,4.92h2.38l-.3,2.24,1.64,4.92,1.19,2.98.6,1.04,2.38,4.17.15,2.83.6,2.83-.15,4.17,1.19,2.53.75,3.88.3,3.28-1.04,4.77,1.04,4.62ZM1383.89,711.3l-.45-3.58-.3-4.32,1.04-1.94-.75-4.47-.6-2.09,1.34-3.58-.45-3.88-.45-2.24-.6-2.98-.6-2.98-2.68-4.47-2.68-1.04-1.34-.45-2.68-2.68-1.79-2.83-3.43-2.09-2.53-.15-2.53-.6-1.94-2.68-1.64-2.38-6.71-2.68-2.53,1.19-2.09.3-2.24,1.64-3.43.45h-2.68l-2.24,3.58v1.64l-1.64,4.77.6,1.19-.89,2.53.45,2.68-.15,3.28-.6,4.32v1.79l1.64,4.32-1.04,2.24.3,3.43-.6,4.02.89,1.34.15,4.77.45,2.98-.15,1.34-.89,3.73.45,3.13v1.49l.75,3.88.3,4.32,2.09,3.28,1.49.45,1.79,2.83,2.09,1.19,3.13,1.64,2.38,3.43,2.09.6,6.41-1.04,2.24-.89,3.73.6,1.19-4.17,2.68.45,2.24-3.13,1.19-3.43,2.09-2.09,3.58-2.24-.15-.6,1.79-1.94,1.94-3.28,2.83-6.86.15-1.04Z" fill="#231f20"/>
  <path d="M1514.4,685.96l-.3,4.17v.45l.3,3.13,1.04,2.98-.3,5.22-.75,1.34-1.04,4.47-.89,1.64.15,2.38.45,2.38-1.79,4.77-1.64,3.43-.45.3-.6,3.88-1.19,2.24-2.68,4.02-1.49,2.24-2.98.75-1.49,1.19-1.64,2.53-5.51,4.77-1.64-.6-3.13,2.83-2.53.89-3.88-1.19-1.94.75-2.38.89-5.22,2.83-4.32-2.09-2.53,2.09-3.13-1.04-2.24-1.34-2.98-.45-5.22-2.24-1.94,1.64-3.58-1.94-1.49-.6-3.73-2.38-2.98,1.04-.89-2.53-2.53-1.94-2.83-1.34-1.64-4.17-2.83-.15-.6-2.38-1.04-3.73-.6-2.09-1.79-5.07-1.34-3.28-.45-2.98-.75-6.11-1.04-1.34.75-2.83-1.19-2.83v-3.88l-.75-3.88.45-2.24.3-3.73,1.04-1.94.3-2.98,1.04-2.53.3-3.13,1.94-2.24,1.94-2.83,1.19-3.58,1.49-.89.15-1.94,2.53-3.28,2.98-1.64,3.43-4.77,2.98-3.13,1.49.75,2.98-1.04,3.73-1.94,2.53-1.79,2.38.3,2.83-.3,3.58.15,3.13-.45,4.47-2.09,7.15,1.94,2.24-.15,3.73.75,1.64-.75,3.43,2.53h2.98l3.88,3.28,3.13-.75,2.38,3.13,1.19,1.19,3.43.75,2.83,6.56.75.6,2.53,2.68,1.64,3.88.45,2.09.89,3.88,2.98,5.37.75,3.43ZM1495.62,707.43l-.3-3.58-1.64-4.77.45-1.64v-2.68l1.19-4.47-.89-.6v-4.62l-1.34-1.34.15-4.17-.15-5.51-2.09-5.96-5.66-3.43-2.24-.45-3.73-.45-5.51-3.58-2.24-1.04-2.98-.75-2.83.6-3.13-.45-2.38-.45-5.96,2.09-2.68,2.09-1.79,2.68-2.38,2.83-4.47,3.13-1.49,3.88-2.68,1.34.6,1.49-1.34,2.68-1.04,3.28-.89,5.07-1.49,2.83.15,1.04,1.79,4.02,1.64,4.62,1.79,3.73-1.19,3.13,1.94,3.28-2.09,2.68,1.79,3.58-1.04,2.24,1.49,1.49,1.04,4.02,1.04,1.19-.3,4.47,2.68.45,6.56,3.43,1.04.75,4.02-.3,3.58-.45,2.24,1.19,3.13,1.64,2.09-2.24,2.38-.15,3.73,1.79,5.66-3.88,5.51-.15,5.07-2.98.75-3.88.3-5.22,2.38-3.28-.3-2.09,1.64-4.77.45-3.43Z" fill="#231f20"/>
  <polygon points="1137.43 260.31 1135.3 260.74 1132.77 260.31 1132.04 260.67 1129.99 260.35 1125.87 260.51 1123.32 262.67 1122.39 264.9 1118.86 265.23 1118.01 269.45 1116.11 269.36 1114.39 273.43 1111.61 275.41 1111.42 277.38 1109.5 280.06 1109.76 282.37 1115.02 282.15 1118.48 282.51 1120.8 280.53 1123.46 279.68 1125.27 276.7 1128.16 275.64 1129.94 273.36 1131.16 273.81 1132.15 272.49 1133.28 271.22 1136.01 270.33 1137.14 268.64 1139.54 267.51 1141.98 264.55 1141.98 261.07 1137.43 260.31" fill="#231f20"/>
</svg>